<?xml version="1.0" standalone="no"?>
<!DOCTYPE svg PUBLIC "-//W3C//DTD SVG 20010904//EN"
 "http://www.w3.org/TR/2001/REC-SVG-20010904/DTD/svg10.dtd">
<svg version="1.0" xmlns="http://www.w3.org/2000/svg"
 width="256.000000pt" height="256.000000pt" viewBox="0 0 256.000000 256.000000"
 preserveAspectRatio="xMidYMid meet">

<g transform="translate(0.000000,256.000000) scale(0.100000,-0.100000)"
fill="#000000" stroke="none">
<path d="M1060 2540 c-266 -47 -484 -162 -681 -359 -110 -110 -181 -206 -241
-326 -315 -626 -65 -1394 558 -1712 201 -103 350 -138 584 -138 231 0 379 34
573 131 157 78 293 185 399 312 85 101 118 151 172 259 97 194 131 342 131
573 0 234 -35 383 -138 584 -253 496 -808 773 -1357 676z m-85 -550 c10 -8 14
-7 18 2 3 9 7 8 12 -5 5 -12 0 -24 -16 -38 l-24 -20 35 4 c35 5 36 4 57 -50
18 -46 19 -52 5 -41 -9 7 -22 20 -29 28 -10 13 -12 10 -13 -14 0 -20 -4 -27
-14 -23 -8 3 -17 -1 -20 -9 -3 -8 -19 -14 -41 -14 -22 0 -34 -4 -30 -10 11
-18 -11 -11 -30 10 -17 19 -41 18 -30 -1 7 -10 -8 -12 -18 -2 -4 4 5 19 20 35
33 34 25 45 -16 23 -29 -14 -32 -14 -38 1 -4 10 0 20 10 26 10 5 17 21 17 38
0 18 5 30 13 30 7 0 20 9 30 20 10 12 22 18 27 15 6 -3 10 -1 10 5 0 12 46 6
65 -10z m312 -47 c-3 -10 -5 -4 -5 12 0 17 2 24 5 18 2 -7 2 -21 0 -30z m-170
-5 c-3 -8 -6 -5 -6 6 -1 11 2 17 5 13 3 -3 4 -12 1 -19z m10 -60 c-3 -8 -6 -5
-6 6 -1 11 2 17 5 13 3 -3 4 -12 1 -19z m433 12 c0 -5 -2 -10 -4 -10 -3 0 -8
5 -11 10 -3 6 -1 10 4 10 6 0 11 -4 11 -10z m-393 -22 c-3 -8 -6 -5 -6 6 -1
11 2 17 5 13 3 -3 4 -12 1 -19z m503 -32 c0 -2 -8 -10 -17 -17 -16 -13 -17
-12 -4 4 13 16 21 21 21 13z m30 -19 c0 -2 -12 -14 -27 -28 l-26 -24 19 27
c16 23 34 36 34 25z m-60 -21 c0 -2 -6 -9 -14 -15 -11 -9 -16 -9 -22 0 -4 7
-3 9 4 5 6 -3 13 -2 17 4 6 10 15 14 15 6z m-835 -204 c-3 -3 -11 0 -18 7 -9
10 -8 11 6 5 10 -3 15 -9 12 -12z m-95 -47 c14 -8 21 -14 15 -14 -5 0 -21 6
-35 14 -14 8 -20 14 -15 14 6 0 21 -6 35 -14z m1250 -105 c-8 -5 -24 -9 -35
-9 -16 1 -16 2 5 9 35 11 48 11 30 0z m-17 -67 c-7 -2 -21 -2 -30 0 -10 3 -4
5 12 5 17 0 24 -2 18 -5z m-56 -9 c-3 -3 -12 -4 -19 -1 -8 3 -5 6 6 6 11 1 17
-2 13 -5z m-1184 -28 c15 -4 27 -11 27 -16 0 -12 -59 -12 -115 -1 l-40 9 45 1
c35 1 42 4 30 12 -12 8 -11 9 5 6 11 -3 32 -8 48 -11z m1250 -23 c-7 -2 -21
-2 -30 0 -10 3 -4 5 12 5 17 0 24 -2 18 -5z m-65 -30 c-10 -2 -26 -2 -35 0
-10 3 -2 5 17 5 19 0 27 -2 18 -5z m-1158 -123 c0 -9 -90 -40 -117 -40 -31 0
-9 18 40 32 64 19 77 21 77 8z m130 -263 c0 -2 -10 -12 -22 -23 l-23 -19 19
23 c18 21 26 27 26 19z m40 -101 c0 -2 -8 -10 -17 -17 -16 -13 -17 -12 -4 4
13 16 21 21 21 13z m0 -55 c-5 -11 -15 -23 -21 -27 -6 -3 -3 5 6 20 20 30 30
35 15 7z m670 -31 c11 -22 18 -40 15 -40 -2 0 -14 18 -25 40 -11 22 -18 40
-15 40 2 0 14 -18 25 -40z m50 -14 c0 -6 -7 -2 -15 8 -8 11 -15 25 -15 30 0 6
7 2 15 -8 8 -11 15 -25 15 -30z m-201 -16 c0 -10 -3 -8 -9 5 -12 27 -12 43 0
25 5 -8 9 -22 9 -30z"/>
</g>
</svg>
